# Blender 5.1.2
# www.blender.org
o lamp_post
v 0.120000 0.000000 0.000000
v 0.060000 0.000000 0.103923
v -0.060000 0.000000 0.103923
v -0.120000 0.000000 0.000000
v -0.060000 0.000000 -0.103923
v 0.060000 0.000000 -0.103923
v 0.120000 3.000000 0.000000
v 0.060000 3.000000 0.103923
v -0.060000 3.000000 0.103923
v -0.120000 3.000000 0.000000
v -0.060000 3.000000 -0.103923
v 0.060000 3.000000 -0.103923
v 0.000000 0.000000 0.000000
v 0.000000 3.000000 0.000000
v 0.000000 2.870000 0.000000
v 0.197990 3.347990 0.000000
v 0.098995 3.347990 0.171464
v -0.098995 3.347990 0.171464
v -0.197990 3.347990 0.000000
v -0.098995 3.347990 -0.171464
v 0.098995 3.347990 -0.171464
v 0.280000 3.150000 0.000000
v 0.140000 3.150000 0.242487
v -0.140000 3.150000 0.242487
v -0.280000 3.150000 0.000000
v -0.140000 3.150000 -0.242487
v 0.140000 3.150000 -0.242487
v 0.197990 2.952010 0.000000
v 0.098995 2.952010 0.171464
v -0.098995 2.952010 0.171464
v -0.197990 2.952010 0.000000
v -0.098995 2.952010 -0.171464
v 0.098995 2.952010 -0.171464
v 0.000000 3.430000 0.000000
v -0.250000 2.890000 -0.250000
v 0.250000 2.890000 -0.250000
v 0.250000 3.010000 -0.250000
v -0.250000 3.010000 -0.250000
v -0.250000 2.890000 0.250000
v 0.250000 2.890000 0.250000
v 0.250000 3.010000 0.250000
v -0.250000 3.010000 0.250000
vn 0.8660 -0.0000 0.5000
vn -0.0000 -0.0000 1.0000
vn -0.8660 -0.0000 0.5000
vn -0.8660 -0.0000 -0.5000
vn -0.0000 -0.0000 -1.0000
vn 0.8660 -0.0000 -0.5000
vn -0.0000 -1.0000 -0.0000
vn -0.0000 1.0000 -0.0000
vn 0.8152 -0.3377 0.4706
vn -0.0000 -0.3377 0.9413
vn -0.8152 -0.3377 0.4706
vn -0.8152 -0.3377 -0.4706
vn -0.0000 -0.3377 -0.9413
vn 0.8152 -0.3377 -0.4706
vn -0.8152 0.3377 -0.4706
vn -0.0000 0.3377 -0.9413
vn 0.8152 0.3377 -0.4706
vn 0.8152 0.3377 0.4706
vn -0.0000 0.3377 0.9413
vn -0.8152 0.3377 0.4706
vn 1.0000 -0.0000 -0.0000
vn -1.0000 -0.0000 -0.0000
vt 0.028861 0.006159
vt 0.068213 0.993841
vt 0.028861 0.993841
vt 0.194410 0.979232
vt 0.154903 0.006159
vt 0.194410 0.006159
vt 0.142586 0.993841
vt 0.119883 0.006159
vt 0.142585 0.006159
vt 0.119883 0.993841
vt 0.080531 0.006159
vt 0.206727 0.006159
vt 0.246235 0.979232
vt 0.206727 0.979232
vt 0.006159 0.006159
vt 0.006159 0.993841
vt 0.659118 0.368862
vt 0.659118 0.408369
vt 0.624904 0.388615
vt 0.659118 0.460194
vt 0.624904 0.440440
vt 0.659118 0.420686
vt 0.624904 0.349108
vt 0.624904 0.479947
vt 0.659118 0.329354
vt 0.659118 0.499701
vt 0.693332 0.349108
vt 0.693332 0.479947
vt 0.693332 0.388615
vt 0.693332 0.440440
vt 0.530129 0.006159
vt 0.495503 0.162108
vt 0.435483 0.137344
vt 0.611007 0.183189
vt 0.611007 0.332164
vt 0.547403 0.317904
vt 0.435483 0.358947
vt 0.435483 0.188711
vt 0.470108 0.202998
vt 0.530129 0.227761
vt 0.611007 0.493457
vt 0.547403 0.358742
vt 0.611007 0.344481
vt 0.530129 0.176394
vt 0.388919 0.440464
vt 0.323736 0.360021
vt 0.388919 0.375536
vt 0.527667 0.605558
vt 0.448983 0.545345
vt 0.514167 0.545345
vt 0.323736 0.517133
vt 0.258552 0.581484
vt 0.258552 0.544027
vt 0.323736 0.661927
vt 0.258552 0.646412
vt 0.435483 0.754328
vt 0.514167 0.814541
vt 0.448983 0.814541
vt 0.323736 0.504815
vt 0.388919 0.477921
vt 0.258552 0.440464
vt 0.323736 0.451843
vt 0.514167 0.673785
vt 0.435483 0.605558
vt 0.388919 0.581484
vt 0.323736 0.570105
vt 0.448983 0.686102
vt 0.527667 0.754328
vt 0.258552 0.674244
vt 0.353198 0.805430
vt 0.293177 0.830194
vt 0.468075 0.991571
vt 0.435483 0.826858
vt 0.500667 0.826858
vt 0.535086 0.371264
vt 0.471922 0.517994
vt 0.435483 0.509321
vt 0.535086 0.533028
vt 0.579995 0.006159
vt 0.612586 0.170872
vt 0.547403 0.170872
vt 0.258552 0.844480
vt 0.547403 0.670388
vt 0.586326 0.505774
vt 0.586326 0.670388
vt 0.547403 0.682705
vt 0.586326 0.847319
vt 0.547403 0.847319
vt 0.423166 0.170772
vt 0.258552 0.006159
vt 0.423166 0.006159
vt 0.624904 0.155439
vt 0.664411 0.006159
vt 0.664411 0.155439
vt 0.423166 0.347703
vt 0.258552 0.183090
vt 0.423166 0.183090
vt 0.624904 0.317037
vt 0.664411 0.167756
vt 0.664411 0.317037
vt 0.068213 0.006159
vt 0.154903 0.979232
vt 0.080531 0.993841
vt 0.246235 0.006159
vt 0.258552 0.375536
vt 0.448983 0.673785
vt 0.388919 0.544027
vt 0.388919 0.646412
vt 0.514167 0.686102
vt 0.258552 0.477921
vt 0.547403 0.505774
vt 0.586326 0.682705
vt 0.258552 0.170772
vt 0.624904 0.006159
vt 0.258552 0.347703
vt 0.624904 0.167756
s 0
f 7/1/1 2/2/1 1/3/1
f 8/4/2 3/5/2 2/6/2
f 9/7/3 4/8/3 3/9/3
f 10/10/4 5/11/4 4/8/4
f 11/12/5 6/13/5 5/14/5
f 12/15/6 1/3/6 6/16/6
f 13/17/7 1/18/7 2/19/7
f 14/20/8 8/21/8 7/22/8
f 13/17/7 2/19/7 3/23/7
f 14/20/8 9/24/8 8/21/8
f 13/17/7 3/23/7 4/25/7
f 14/20/8 10/26/8 9/24/8
f 13/17/7 4/25/7 5/27/7
f 14/20/8 11/28/8 10/26/8
f 13/17/7 5/27/7 6/29/7
f 14/20/8 12/30/8 11/28/8
f 13/17/7 6/29/7 1/18/7
f 14/20/8 7/22/8 12/30/8
f 15/31/9 16/32/9 17/33/9
f 15/34/10 17/35/10 18/36/10
f 15/37/11 18/38/11 19/39/11
f 15/37/12 19/39/12 20/40/12
f 15/41/13 20/42/13 21/43/13
f 15/31/14 21/44/14 16/32/14
f 16/45/12 23/46/12 17/47/12
f 23/48/13 18/49/13 17/50/13
f 24/51/14 19/52/14 18/53/14
f 19/52/9 26/54/9 20/55/9
f 26/56/10 21/57/10 20/58/10
f 27/59/11 16/45/11 21/60/11
f 28/61/15 23/46/15 22/62/15
f 29/63/16 24/64/16 23/48/16
f 24/51/17 31/65/17 25/66/17
f 31/65/18 26/54/18 25/66/18
f 32/67/19 27/68/19 26/56/19
f 27/59/20 28/61/20 22/62/20
f 34/69/18 29/70/18 28/71/18
f 34/72/19 30/73/19 29/74/19
f 34/75/20 31/76/20 30/77/20
f 34/75/15 32/78/15 31/76/15
f 34/79/16 33/80/16 32/81/16
f 34/69/17 28/71/17 33/82/17
f 38/83/5 36/84/5 35/85/5
f 40/86/2 42/87/2 39/88/2
f 36/89/7 39/90/7 35/91/7
f 37/92/21 40/93/21 36/94/21
f 38/95/8 41/96/8 37/97/8
f 35/98/22 42/99/22 38/100/22
f 7/1/1 8/101/1 2/2/1
f 8/4/2 9/102/2 3/5/2
f 9/7/3 10/10/3 4/8/3
f 10/10/4 11/103/4 5/11/4
f 11/12/5 12/104/5 6/13/5
f 12/15/6 7/1/6 1/3/6
f 16/45/12 22/62/12 23/46/12
f 23/48/13 24/64/13 18/49/13
f 24/51/14 25/66/14 19/52/14
f 19/52/9 25/66/9 26/54/9
f 26/56/10 27/68/10 21/57/10
f 27/59/11 22/62/11 16/45/11
f 28/61/15 29/105/15 23/46/15
f 29/63/16 30/106/16 24/64/16
f 24/51/17 30/107/17 31/65/17
f 31/65/18 32/108/18 26/54/18
f 32/67/19 33/109/19 27/68/19
f 27/59/20 33/110/20 28/61/20
f 38/83/5 37/111/5 36/84/5
f 40/86/2 41/112/2 42/87/2
f 36/89/7 40/113/7 39/90/7
f 37/92/21 41/114/21 40/93/21
f 38/95/8 42/115/8 41/96/8
f 35/98/22 39/116/22 42/99/22
